HIERARCHY
ROOT Root
{
  OFFSET 0.0 0.0 0.0
  CHANNELS 6 Xposition Yposition Zposition Zrotation Yrotation Xrotation
  JOINT Hips
  {
    OFFSET 0.0 100.0 0.0
    CHANNELS 6 Xposition Yposition Zposition Zrotation Yrotation Xrotation
    JOINT Spine1
    {
      OFFSET 5.003913 -0.037094 -0.013727
      CHANNELS 3 Zrotation Yrotation Xrotation
      JOINT Spine2
      {
        OFFSET 7.125363 -1e-06 0.0
        CHANNELS 3 Zrotation Yrotation Xrotation
        JOINT Chest
        {
          OFFSET 7.594027 1e-06 0.0
          CHANNELS 3 Zrotation Yrotation Xrotation
          JOINT Neck1
          {
            OFFSET 26.313086 -0.460272 -0.181672
            CHANNELS 3 Zrotation Yrotation Xrotation
            JOINT Neck2
            {
              OFFSET 8.045911 0.0 0.0
              CHANNELS 3 Zrotation Yrotation Xrotation
              JOINT Head
              {
                OFFSET 6.432774 0.0 0.0
                CHANNELS 3 Zrotation Yrotation Xrotation
                JOINT HeadEnd
                {
                  OFFSET 16.169773 0.06451 0.00362
                  CHANNELS 3 Zrotation Yrotation Xrotation
                }
                JOINT Jaw
                {
                  OFFSET 0.108741 3.12938 0.002639
                  CHANNELS 3 Zrotation Yrotation Xrotation
                }
                JOINT LeftEye
                {
                  OFFSET 4.45173 8.166359 3.206392
                  CHANNELS 3 Zrotation Yrotation Xrotation
                }
                JOINT RightEye
                {
                  OFFSET 4.436895 8.135758 -3.222429
                  CHANNELS 3 Zrotation Yrotation Xrotation
                }
              }
            }
          }
          JOINT LeftShoulder
          {
            OFFSET 23.218927 5.195579 1.621656
            CHANNELS 3 Zrotation Yrotation Xrotation
            JOINT LeftArm
            {
              OFFSET 15.902118 2e-06 -2e-06
              CHANNELS 3 Zrotation Yrotation Xrotation
              JOINT LeftForeArm
              {
                OFFSET 28.739307 0.0 -1e-06
                CHANNELS 3 Zrotation Yrotation Xrotation
                JOINT LeftHand
                {
                  OFFSET 27.093981 -4e-06 0.0
                  CHANNELS 3 Zrotation Yrotation Xrotation
                  JOINT LeftHandThumb1
                  {
                    OFFSET 2.276781 3.380274 0.83384
                    CHANNELS 3 Zrotation Yrotation Xrotation
                    JOINT LeftHandThumb2
                    {
                      OFFSET 4.705309 -1e-06 -1e-06
                      CHANNELS 3 Zrotation Yrotation Xrotation
                      JOINT LeftHandThumb3
                      {
                        OFFSET 2.798515 0.0 3e-06
                        CHANNELS 3 Zrotation Yrotation Xrotation
                        JOINT LeftHandThumbEnd
                        {
                          OFFSET 3.180793 4e-06 -4e-06
                          CHANNELS 3 Zrotation Yrotation Xrotation
                        }
                      }
                    }
                  }
                  JOINT LeftHandIndex1
                  {
                    OFFSET 3.247786 2.352677 0.137192
                    CHANNELS 3 Zrotation Yrotation Xrotation
                    JOINT LeftHandIndex2
                    {
                      OFFSET 6.367095 1e-06 0.0
                      CHANNELS 3 Zrotation Yrotation Xrotation
                      JOINT LeftHandIndex3
                      {
                        OFFSET 3.662364 0.0 0.0
                        CHANNELS 3 Zrotation Yrotation Xrotation
                        JOINT LeftHandIndex4
                        {
                          OFFSET 2.329242 4e-06 -4e-06
                          CHANNELS 3 Zrotation Yrotation Xrotation
                          JOINT LeftHandIndexEnd
                          {
                            OFFSET 2.767823 1e-06 0.0
                            CHANNELS 3 Zrotation Yrotation Xrotation
                          }
                        }
                      }
                    }
                  }
                  JOINT LeftHandMiddle1
                  {
                    OFFSET 3.163612 0.945023 -0.406112
                    CHANNELS 3 Zrotation Yrotation Xrotation
                    JOINT LeftHandMiddle2
                    {
                      OFFSET 6.276789 3e-06 0.0
                      CHANNELS 3 Zrotation Yrotation Xrotation
                      JOINT LeftHandMiddle3
                      {
                        OFFSET 4.35652 -1e-06 4e-06
                        CHANNELS 3 Zrotation Yrotation Xrotation
                        JOINT LeftHandMiddle4
                        {
                          OFFSET 2.996877 0.0 8e-06
                          CHANNELS 3 Zrotation Yrotation Xrotation
                          JOINT LeftHandMiddleEnd
                          {
                            OFFSET 2.323256 3e-06 -4e-06
                            CHANNELS 3 Zrotation Yrotation Xrotation
                          }
                        }
                      }
                    }
                  }
                  JOINT LeftHandRing1
                  {
                    OFFSET 2.882606 -0.309162 0.107445
                    CHANNELS 3 Zrotation Yrotation Xrotation
                    JOINT LeftHandRing2
                    {
                      OFFSET 6.033198 0.0 4e-06
                      CHANNELS 3 Zrotation Yrotation Xrotation
                      JOINT LeftHandRing3
                      {
                        OFFSET 4.350578 3e-06 0.0
                        CHANNELS 3 Zrotation Yrotation Xrotation
                        JOINT LeftHandRing4
                        {
                          OFFSET 2.651321 2e-06 -7e-06
                          CHANNELS 3 Zrotation Yrotation Xrotation
                          JOINT LeftHandRingEnd
                          {
                            OFFSET 1.937663 1e-06 -4e-06
                            CHANNELS 3 Zrotation Yrotation Xrotation
                          }
                        }
                      }
                    }
                  }
                  JOINT LeftHandPinky1
                  {
                    OFFSET 2.865315 -1.525436 0.575687
                    CHANNELS 3 Zrotation Yrotation Xrotation
                    JOINT LeftHandPinky2
                    {
                      OFFSET 5.54936 1e-06 -8e-06
                      CHANNELS 3 Zrotation Yrotation Xrotation
                      JOINT LeftHandPinky3
                      {
                        OFFSET 3.070974 0.0 -4e-06
                        CHANNELS 3 Zrotation Yrotation Xrotation
                        JOINT LeftHandPinky4
                        {
                          OFFSET 1.549672 1e-06 0.0
                          CHANNELS 3 Zrotation Yrotation Xrotation
                          JOINT LeftHandPinkyEnd
                          {
                            OFFSET 1.952123 0.0 0.0
                            CHANNELS 3 Zrotation Yrotation Xrotation
                          }
                        }
                      }
                    }
                  }
                }
              }
            }
          }
          JOINT RightShoulder
          {
            OFFSET 23.161716 5.296122 -1.380114
            CHANNELS 3 Zrotation Yrotation Xrotation
            JOINT RightArm
            {
              OFFSET -16.027195 -2e-06 1.1e-05
              CHANNELS 3 Zrotation Yrotation Xrotation
              JOINT RightForeArm
              {
                OFFSET -28.736639 4e-06 2e-06
                CHANNELS 3 Zrotation Yrotation Xrotation
                JOINT RightHand
                {
                  OFFSET -27.133619 6e-06 0.0
                  CHANNELS 3 Zrotation Yrotation Xrotation
                  JOINT RightHandThumb1
                  {
                    OFFSET -2.274328 -3.351035 -0.83067
                    CHANNELS 3 Zrotation Yrotation Xrotation
                    JOINT RightHandThumb2
                    {
                      OFFSET -4.703594 -3e-06 2e-06
                      CHANNELS 3 Zrotation Yrotation Xrotation
                      JOINT RightHandThumb3
                      {
                        OFFSET -2.794935 -4e-06 -3e-06
                        CHANNELS 3 Zrotation Yrotation Xrotation
                        JOINT RightHandThumbEnd
                        {
                          OFFSET -3.183852 4e-06 1e-06
                          CHANNELS 3 Zrotation Yrotation Xrotation
                        }
                      }
                    }
                  }
                  JOINT RightHandIndex1
                  {
                    OFFSET -3.253496 -2.33755 -0.127667
                    CHANNELS 3 Zrotation Yrotation Xrotation
                    JOINT RightHandIndex2
                    {
                      OFFSET -6.344434 0.0 0.0
                      CHANNELS 3 Zrotation Yrotation Xrotation
                      JOINT RightHandIndex3
                      {
                        OFFSET -3.654871 0.0 -8e-06
                        CHANNELS 3 Zrotation Yrotation Xrotation
                        JOINT RightHandIndex4
                        {
                          OFFSET -2.327586 -1e-06 0.0
                          CHANNELS 3 Zrotation Yrotation Xrotation
                          JOINT RightHandIndexEnd
                          {
                            OFFSET -2.770001 3e-06 8e-06
                            CHANNELS 3 Zrotation Yrotation Xrotation
                          }
                        }
                      }
                    }
                  }
                  JOINT RightHandMiddle1
                  {
                    OFFSET -3.168223 -0.944764 0.411762
                    CHANNELS 3 Zrotation Yrotation Xrotation
                    JOINT RightHandMiddle2
                    {
                      OFFSET -6.266691 -1e-06 -4e-06
                      CHANNELS 3 Zrotation Yrotation Xrotation
                      JOINT RightHandMiddle3
                      {
                        OFFSET -4.348901 0.0 0.0
                        CHANNELS 3 Zrotation Yrotation Xrotation
                        JOINT RightHandMiddle4
                        {
                          OFFSET -3.00024 2e-06 -4e-06
                          CHANNELS 3 Zrotation Yrotation Xrotation
                          JOINT RightHandMiddleEnd
                          {
                            OFFSET -2.321477 -4e-06 -4e-06
                            CHANNELS 3 Zrotation Yrotation Xrotation
                          }
                        }
                      }
                    }
                  }
                  JOINT RightHandRing1
                  {
                    OFFSET -2.885654 0.293261 -0.119232
                    CHANNELS 3 Zrotation Yrotation Xrotation
                    JOINT RightHandRing2
                    {
                      OFFSET -6.032835 -1e-06 -4e-06
                      CHANNELS 3 Zrotation Yrotation Xrotation
                      JOINT RightHandRing3
                      {
                        OFFSET -4.33881 0.0 -4e-06
                        CHANNELS 3 Zrotation Yrotation Xrotation
                        JOINT RightHandRing4
                        {
                          OFFSET -2.654903 -4e-06 -4e-06
                          CHANNELS 3 Zrotation Yrotation Xrotation
                          JOINT RightHandRingEnd
                          {
                            OFFSET -1.935122 0.0 4e-06
                            CHANNELS 3 Zrotation Yrotation Xrotation
                          }
                        }
                      }
                    }
                  }
                  JOINT RightHandPinky1
                  {
                    OFFSET -2.866241 1.503904 -0.60527
                    CHANNELS 3 Zrotation Yrotation Xrotation
                    JOINT RightHandPinky2
                    {
                      OFFSET -5.553177 -2e-06 0.0
                      CHANNELS 3 Zrotation Yrotation Xrotation
                      JOINT RightHandPinky3
                      {
                        OFFSET -3.062664 -1e-06 -4e-06
                        CHANNELS 3 Zrotation Yrotation Xrotation
                        JOINT RightHandPinky4
                        {
                          OFFSET -1.546529 2e-06 4e-06
                          CHANNELS 3 Zrotation Yrotation Xrotation
                          JOINT RightHandPinkyEnd
                          {
                            OFFSET -1.952341 0.0 -4e-06
                            CHANNELS 3 Zrotation Yrotation Xrotation
                          }
                        }
                      }
                    }
                  }
                }
              }
            }
          }
        }
      }
    }
    JOINT LeftLeg
    {
      OFFSET -8.443107 2.567604 10.043214
      CHANNELS 3 Zrotation Yrotation Xrotation
      JOINT LeftShin
      {
        OFFSET 43.229198 1e-06 -1e-06
        CHANNELS 3 Zrotation Yrotation Xrotation
        JOINT LeftFoot
        {
          OFFSET 42.298611 1e-06 1e-06
          CHANNELS 3 Zrotation Yrotation Xrotation
          JOINT LeftToeBase
          {
            OFFSET 14.165858 1e-06 0.0
            CHANNELS 3 Zrotation Yrotation Xrotation
            JOINT LeftToeEnd
            {
              OFFSET 6.7141 -0.234461 0.0
              CHANNELS 3 Zrotation Yrotation Xrotation
            }
          }
        }
      }
    }
    JOINT RightLeg
    {
      OFFSET -8.303923 2.592729 -10.047278
      CHANNELS 3 Zrotation Yrotation Xrotation
      JOINT RightShin
      {
        OFFSET -43.369682 0.0 1e-06
        CHANNELS 3 Zrotation Yrotation Xrotation
        JOINT RightFoot
        {
          OFFSET -42.260784 4e-06 2e-06
          CHANNELS 3 Zrotation Yrotation Xrotation
          JOINT RightToeBase
          {
            OFFSET -14.222245 -2e-06 -1e-06
            CHANNELS 3 Zrotation Yrotation Xrotation
            JOINT RightToeEnd
            {
              OFFSET -6.660062 0.232574 -2e-06
              CHANNELS 3 Zrotation Yrotation Xrotation
            }
          }
        }
      }
    }
  }
}
MOTION
Frames: 4
Frame Time: 0.03333333333333333
0.0 0.0 0.0 0.0 -0.0 0.0 1.778613 97.726402 -5.288239 89.392776 3.479694 89.840073 -1.637935 1.156328 -0.490202 -11.916843 -0.402814 -0.540961 18.924822 0.798054 -3.204032 24.700148 -1.42343 2.681831 -2.539053 -0.782166 -2.533962 -33.724339 0.602774 -5.155386 6e-06 0.0 -0.0 0.036256 0.027089 0.106351 0.049446 0.014688 0.104808 -0.00767 0.042329 0.11127 -116.486382 -77.436287 138.653091 57.580673 -53.325119 3.940883 20.586756 0.361717 0.016646 -2.344836 3.801171 0.982795 17.636633 -26.322737 52.411209 -19.466663 -14.395598 29.410395 -0.0 -8.774822 -3e-06 15.825098 -18.088915 6.272227 -0.609777 -1.795654 -3.889326 -4.80709 -11.046813 -2.937851 5e-06 -20.976021 -1e-06 -5.01997 -25.03356 -4.031878 6e-06 -2e-06 -2e-06 -10.634537 -5.686972 -3.565589 10.573277 -17.922953 -3.113901 4e-06 -13.821211 -2e-06 -0.501776 -31.181507 -4.027016 -11.778062 -60.005363 7.51234 -13.982717 -7.1502 -2.875044 13.772728 -8.401491 -3.218238 0.347734 -34.211555 0.771651 -0.963032 -17.733372 2.621021 -1e-06 3e-06 0.0 -17.346422 -20.095221 -4.201783 21.757561 -1.638375 3.866427 1e-06 -6.338824 -0.0 -1.697589 -22.591749 -6.194005 -0.0 -4e-06 -2e-06 41.83617 -77.173866 161.559845 50.06731 -57.290382 -19.796101 25.870058 -0.063577 0.156366 -2.733011 7.368718 8.559723 22.182123 -20.375895 49.933323 -16.701813 -16.74353 28.476532 -2e-06 -12.690605 -2e-06 16.230972 -17.790585 2.614038 -0.105921 -1.513856 -4.275884 -5.039042 -5.612873 -2.953557 4e-06 -11.020527 -4e-06 -6.111302 -15.895334 -3.840471 0.0 -0.0 0.0 -10.283374 -5.680289 -4.341839 11.028296 -11.302404 -2.372633 -1.384269 -14.238579 -6.320122 -0.625436 -26.924191 -3.827604 -4.190059 -49.87244 -3.798544 -13.708529 -7.363479 -3.72094 18.141153 -14.052742 -3.242676 8e-06 -18.787271 -2e-06 -0.429711 -8.456047 2.555506 0.0 1e-06 0.0 -15.923539 -20.094484 -5.473585 30.419228 -7.190827 1.735929 2e-06 -8.162929 0.0 -1.861902 -22.861469 -6.167944 1e-06 -3e-06 -2e-06 171.635757 -7.751503 0.772326 27.970922 -0.079214 0.209579 -86.108452 9.437344 -6.103891 -7.848503 1.605922 2.095046 -0.999999 0.0 0.0 -8.865941 -3.48244 -4.460768 29.678701 -0.110162 0.122364 -85.907509 -2.63543 -7.365982 -7.58166 0.771732 1.609416 -1.000002 0.0 0.0 
0.0 0.0 0.0 0.0 -0.0 0.0 1.798247 97.78714 -5.455939 89.305321 3.459266 89.75029 -1.592259 1.188965 -0.543968 -11.89487 -0.361828 -0.505889 18.914446 0.814233 -3.22225 24.68433 -1.503758 2.641046 -2.520468 -0.749457 -2.48563 -33.640907 0.511409 -5.093309 7e-06 -0.0 -0.0 0.025385 0.029714 0.14524 0.058036 0.020465 0.145684 -0.003872 0.041926 0.147086 -116.198158 -77.532471 138.476517 57.912998 -53.331852 3.54132 20.552725 0.331339 -0.004072 -2.209776 3.841425 1.258361 17.636623 -26.322731 52.411194 -19.466658 -14.395597 29.410389 -1e-06 -8.774821 -3e-06 15.802189 -18.078461 6.2709 -0.609776 -1.795653 -3.889328 -4.807088 -11.046809 -2.93785 5e-06 -20.976015 -1e-06 -5.019971 -25.033558 -4.031879 7e-06 0.0 -1e-06 -10.634533 -5.686967 -3.565588 10.573275 -17.922949 -3.113901 4e-06 -13.821206 -1e-06 -0.50178 -31.181494 -4.027007 -11.75805 -60.04636 7.572877 -13.982712 -7.150196 -2.875044 13.77273 -8.401491 -3.218242 0.347734 -34.211544 0.771656 -0.963032 -17.73337 2.621022 0.0 0.0 1e-06 -17.346413 -20.095213 -4.201783 21.757555 -1.638376 3.866429 1e-06 -6.338823 -0.0 -1.697589 -22.591745 -6.194003 0.0 -4e-06 -1e-06 41.823147 -77.094292 161.726822 50.137157 -57.244057 -19.987593 25.951515 -0.09355 0.135042 -2.634516 7.367827 8.381448 22.182112 -20.375887 49.933308 -16.701817 -16.743528 28.47653 -4e-06 -12.690601 -1e-06 16.234261 -17.756147 2.6063 -0.105918 -1.513855 -4.27588 -5.03904 -5.612871 -2.953556 4e-06 -11.020523 -3e-06 -6.111295 -15.89533 -3.840469 -0.0 -0.0 0.0 -10.283368 -5.680286 -4.341837 11.028294 -11.302404 -2.372633 -1.384269 -14.238579 -6.320118 -0.625437 -26.924187 -3.827603 -4.202324 -49.928463 -3.761378 -13.708523 -7.363473 -3.720936 18.141148 -14.05274 -3.242674 9e-06 -18.78727 -3e-06 -0.42971 -8.456045 2.555505 0.0 -0.0 0.0 -15.923531 -20.094482 -5.473583 30.41921 -7.190827 1.735924 4e-06 -8.162928 -0.0 -1.861901 -22.861467 -6.167942 -0.0 -2e-06 -0.0 171.653793 -7.730196 0.899639 27.752432 -0.06176 0.244716 -85.965836 9.178752 -6.091444 -7.867869 1.608822 2.09436 -0.999999 0.0 0.0 -8.849225 -3.344975 -4.305676 29.32605 -0.109553 0.135069 -85.591415 -2.81977 -7.369596 -7.614603 0.75536 1.612276 -1.000001 0.0 0.0 
0.0 0.0 0.0 0.0 -0.0 0.0 1.837445 97.811279 -5.675626 89.224327 3.443616 89.621391 -1.54803 1.226995 -0.581517 -11.891511 -0.340859 -0.502646 18.989017 0.834443 -3.214319 24.633072 -1.636372 2.633894 -2.53517 -0.715292 -2.474355 -33.542572 0.440908 -5.062018 5e-06 0.0 0.0 0.019853 0.030899 0.162678 0.049674 0.023663 0.165988 -0.013154 0.040929 0.160819 -115.962761 -77.595726 138.292801 58.143951 -53.325706 3.355128 20.63834 0.304143 -0.020646 -2.103091 3.832124 1.286452 17.636627 -26.322733 52.41119 -19.46666 -14.395592 29.410385 0.0 -8.774821 -2e-06 15.799866 -18.110228 6.276303 -0.609776 -1.795653 -3.889328 -4.80709 -11.046813 -2.937847 3e-06 -20.976019 -2e-06 -5.019972 -25.033562 -4.03188 6e-06 1e-06 1e-06 -10.634533 -5.68697 -3.565586 10.573269 -17.922951 -3.1139 2e-06 -13.821211 -2e-06 -0.50178 -31.181505 -4.027013 -11.815095 -60.020836 7.602811 -13.982714 -7.150201 -2.875039 13.772727 -8.401491 -3.218241 0.347731 -34.211555 0.771652 -0.963029 -17.733372 2.621017 0.0 2e-06 0.0 -17.346418 -20.095219 -4.201776 21.757555 -1.638372 3.866426 1e-06 -6.338824 0.0 -1.697591 -22.591747 -6.194007 -1e-06 -3e-06 -2e-06 41.70829 -77.042015 161.931778 50.177505 -57.19072 -20.062681 26.052055 -0.106988 0.11842 -2.530766 7.439635 8.219197 22.182116 -20.375887 49.933315 -16.701813 -16.74353 28.47653 -2e-06 -12.690603 -1e-06 16.236727 -17.712379 2.609504 -0.105918 -1.513855 -4.275879 -5.039042 -5.612873 -2.953558 3e-06 -11.020525 -3e-06 -6.111298 -15.895334 -3.840471 0.0 1e-06 -1e-06 -10.28337 -5.680289 -4.341837 11.028296 -11.302406 -2.372633 -1.38427 -14.238582 -6.320121 -0.625439 -26.924198 -3.827603 -4.211551 -49.930328 -3.741965 -13.708526 -7.363477 -3.720939 18.14115 -14.052739 -3.242675 6e-06 -18.787271 -4e-06 -0.429711 -8.456046 2.555503 0.0 1e-06 1e-06 -15.923536 -20.094484 -5.473583 30.419214 -7.190823 1.735928 2e-06 -8.162929 -1e-06 -1.861902 -22.861473 -6.167947 0.0 -3e-06 0.0 171.494461 -7.777971 1.020943 27.744959 -0.05406 0.250401 -85.803009 8.974007 -6.098339 -7.839282 1.602245 2.094638 -0.999998 0.0 0.0 -8.967097 -3.240224 -4.125166 29.174187 -0.099473 0.129494 -85.334068 -2.99194 -7.417632 -7.593404 0.757001 1.613789 -1.000002 0.0 0.0 
0.0 0.0 0.0 0.0 -0.0 0.0 1.842657 97.840363 -5.918963 89.120293 3.407185 89.475166 -1.490724 1.278316 -0.602949 -11.885978 -0.320807 -0.522163 19.084482 0.861545 -3.175634 24.536358 -1.792827 2.623228 -2.555816 -0.702451 -2.429947 -33.529282 0.413285 -5.054277 6e-06 0.0 1e-06 0.017688 0.030199 0.164874 0.03301 0.025061 0.169514 -0.028798 0.037859 0.160968 -115.812035 -77.648552 138.163727 58.32489 -53.306458 3.37644 20.795557 0.309249 -0.021248 -2.00516 3.798109 1.287814 17.63662 -26.322716 52.411179 -19.466652 -14.395594 29.410378 0.0 -8.774819 -3e-06 15.798019 -18.1182 6.269345 -0.609776 -1.795652 -3.889324 -4.807087 -11.046805 -2.937852 4e-06 -20.976006 -3e-06 -5.019969 -25.033546 -4.031881 5e-06 -1e-06 1e-06 -10.634531 -5.686969 -3.565585 10.573271 -17.922941 -3.113899 2e-06 -13.821201 -2e-06 -0.501779 -31.181488 -4.027014 -11.838772 -59.982285 7.586728 -13.982711 -7.150196 -2.87504 13.772724 -8.401488 -3.218243 0.347735 -34.211536 0.771651 -0.963028 -17.733366 2.621021 -1e-06 1e-06 1e-06 -17.346413 -20.095209 -4.201781 21.757551 -1.638373 3.866426 1e-06 -6.33882 1e-06 -1.697591 -22.591736 -6.194004 -1e-06 -2e-06 0.0 41.541843 -77.024055 162.12851 50.204697 -57.124241 -19.930115 26.148344 -0.082923 0.118194 -2.44955 7.450283 8.046238 22.182108 -20.375881 49.933304 -16.701811 -16.743523 28.476522 -4e-06 -12.690598 -2e-06 16.23513 -17.67478 2.618119 -0.105919 -1.513857 -4.275881 -5.03904 -5.612871 -2.953557 4e-06 -11.020521 -2e-06 -6.111296 -15.89533 -3.840471 0.0 1e-06 -1e-06 -10.283364 -5.680287 -4.341839 11.028292 -11.302404 -2.372633 -1.384267 -14.238577 -6.320121 -0.625437 -26.924183 -3.8276 -4.230554 -49.906231 -3.71344 -13.70852 -7.363474 -3.72094 18.141146 -14.052738 -3.242674 9e-06 -18.787266 -6e-06 -0.42971 -8.456041 2.555505 1e-06 0.0 -1e-06 -15.923532 -20.094482 -5.473585 30.419207 -7.190825 1.735926 3e-06 -8.162927 0.0 -1.861899 -22.861467 -6.167942 0.0 -4e-06 -3e-06 171.304001 -7.84916 1.09834 27.711784 -0.050781 0.24479 -85.625694 8.78934 -6.12561 -7.81348 1.589893 2.091119 -0.999999 0.0 -0.0 -9.110436 -3.081041 -3.937835 28.991011 -0.091834 0.114642 -85.044258 -3.162874 -7.455774 -7.566082 0.759686 1.613608 -1.000002 1e-06 0.0 
